<svg xmlns="http://www.w3.org/2000/svg" viewBox="0 0 256 300" role="img" aria-labelledby="title desc">
  <title id="title">Camp Canteen POS mark</title>
  <desc id="desc">Vector badge with a stylised register and contactless waves above the Camp Canteen POS wordmark.</desc>
  <g fill="none" fill-rule="evenodd">
    <path
      d="M128 28c-7.6 0-15.1 2.9-20.9 8.3L63.4 77.7a28.8 28.8 0 0 0-9.4 21.2v55.3c0 9.4 4.1 18.3 11.2 24.4l53 46.1a15.6 15.6 0 0 0 20.8 0l53-46.2c7.1-6.1 11.2-15 11.2-24.4V99c0-8-3.4-15.9-9.5-21.2L148.9 36.3C143.1 30.9 135.6 28 128 28Z"
      fill="#1F2A36"
    />
    <path
      d="M128 40.5c-4.5 0-8.9 1.7-12.2 4.7L72 83.3a18.2 18.2 0 0 0-6 13.4v55.3c0 5.7 2.4 11.2 6.8 15l52.9 46.1a6.2 6.2 0 0 0 8.6 0l52.8-46c4.4-3.9 6.8-9.3 6.8-15.1V96.8c0-4.8-2.1-9.5-6-13.3l-43.8-38c-3.3-3-7.7-4.8-12.1-4.8Z"
      fill="#304457"
    />
    <path
      d="M90 112c0-6.6 5.4-12 12-12h52c6.6 0 12 5.4 12 12v42H90v-42Z"
      fill="#1F2A36"
    />
    <rect x="104" y="118" width="48" height="28" rx="6" fill="#101820" />
    <rect x="108" y="86" width="40" height="24" rx="6" fill="#F3F5F8" />
    <rect x="116" y="94" width="24" height="4" rx="2" fill="#3EC5D3" />
    <rect x="116" y="102" width="16" height="4" rx="2" fill="#3EC5D3" opacity=".75" />
    <rect x="100" y="150" width="8" height="16" rx="3" fill="#3EC5D3" opacity=".85" />
    <rect x="148" y="150" width="8" height="16" rx="3" fill="#3EC5D3" opacity=".85" />
    <circle cx="128" cy="142" r="6" fill="#3EC5D3" />
    <path
      d="M170.6 105.2c6.7 4.2 10.7 11.4 10.7 19.1 0 7.6-4 14.6-10.7 18.8"
      stroke="#3EC5D3"
      stroke-width="8"
      stroke-linecap="round"
      opacity=".6"
    />
    <path
      d="M158.8 109.7c4.5 2.8 7.2 7.7 7.2 12.9 0 5.2-2.7 10.1-7.1 12.8"
      stroke="#3EC5D3"
      stroke-width="6"
      stroke-linecap="round"
      opacity=".8"
    />
    <path
      d="M149.5 114.7c2.6 1.6 4.2 4.3 4.2 7.3 0 3-1.6 5.8-4.2 7.4"
      stroke="#3EC5D3"
      stroke-width="5"
      stroke-linecap="round"
    />
    <g fill="#3EC5D3" font-family="'Montserrat', 'Segoe UI', sans-serif" font-weight="600" font-size="28" text-anchor="middle">
      <text x="128" y="210" letter-spacing="4">CAMP</text>
      <text x="128" y="242" letter-spacing="4">CANTEEN</text>
      <text x="128" y="274" font-size="22" letter-spacing="4">POS</text>
    </g>
  </g>
</svg>
